<svg xmlns="http://www.w3.org/2000/svg" viewBox="0 0 1280 720" width="1280" height="720"><defs><linearGradient id="night" x1="0" y1="0" x2="0" y2="1"><stop offset="0" stop-color="#060a1e"/><stop offset=".55" stop-color="#1b1640"/><stop offset=".85" stop-color="#4a2346"/><stop offset="1" stop-color="#6b2d3c"/></linearGradient><radialGradient id="fireglow"><stop offset="0" stop-color="#ffcf6b" stop-opacity=".9"/><stop offset=".3" stop-color="#ff8a3d" stop-opacity=".45"/><stop offset="1" stop-color="#ff5a1f" stop-opacity="0"/></radialGradient><radialGradient id="torch"><stop offset="0" stop-color="#fff0b0"/><stop offset=".35" stop-color="#ffab45" stop-opacity=".85"/><stop offset="1" stop-color="#ff7a1f" stop-opacity="0"/></radialGradient><linearGradient id="flame" x1="0" y1="1" x2="0" y2="0"><stop offset="0" stop-color="#ff5a1f"/><stop offset=".55" stop-color="#ffa030"/><stop offset="1" stop-color="#ffe7a0"/></linearGradient></defs><rect width="1280" height="720" fill="url(#night)"/><circle cx="211.1" cy="296.6" r="1.3" fill="#fff" opacity="0.59"/><circle cx="276.5" cy="340.8" r="1.5" fill="#fff" opacity="0.61"/><circle cx="646.5" cy="101.5" r="0.5" fill="#fff" opacity="0.51"/><circle cx="749.3" cy="29.8" r="1.5" fill="#fff" opacity="0.41"/><circle cx="297.8" cy="18.2" r="1.7" fill="#fff" opacity="0.77"/><circle cx="1120.1" cy="264.8" r="0.5" fill="#fff" opacity="0.48"/><circle cx="636.9" cy="49.8" r="1.6" fill="#fff" opacity="0.51"/><circle cx="198.2" cy="351.5" r="0.6" fill="#fff" opacity="0.90"/><circle cx="580" cy="237.4" r="0.9" fill="#fff" opacity="0.59"/><circle cx="239.2" cy="16" r="1.5" fill="#fff" opacity="0.41"/><circle cx="998.7" cy="89.7" r="1.7" fill="#fff" opacity="0.88"/><circle cx="966.1" cy="328" r="1.2" fill="#fff" opacity="0.76"/><circle cx="156.8" cy="204.8" r="1.5" fill="#fff" opacity="0.39"/><circle cx="1181.7" cy="381.7" r="1" fill="#fff" opacity="0.51"/><circle cx="577.7" cy="165.9" r="1.7" fill="#fff" opacity="0.52"/><circle cx="34.3" cy="40.1" r="1.4" fill="#fff" opacity="0.94"/><circle cx="634.9" cy="211.4" r="1.2" fill="#fff" opacity="0.77"/><circle cx="284.2" cy="261.8" r="1.2" fill="#fff" opacity="0.69"/><circle cx="231.3" cy="73.1" r="0.9" fill="#fff" opacity="0.90"/><circle cx="443.7" cy="256.8" r="0.9" fill="#fff" opacity="0.32"/><circle cx="84" cy="349.9" r="1.4" fill="#fff" opacity="0.51"/><circle cx="874.7" cy="290.6" r="1.6" fill="#fff" opacity="0.92"/><circle cx="521" cy="425.3" r="1.7" fill="#fff" opacity="0.66"/><circle cx="1130.5" cy="211.1" r="1" fill="#fff" opacity="0.42"/><circle cx="1121.5" cy="69.8" r="0.6" fill="#fff" opacity="0.81"/><circle cx="990.6" cy="207.8" r="1.5" fill="#fff" opacity="0.29"/><circle cx="330.2" cy="124.6" r="1" fill="#fff" opacity="0.37"/><circle cx="88.9" cy="145.4" r="1.6" fill="#fff" opacity="0.94"/><circle cx="954.7" cy="206" r="0.8" fill="#fff" opacity="0.92"/><circle cx="672.8" cy="313.3" r="0.5" fill="#fff" opacity="0.40"/><circle cx="1073" cy="341.9" r="1.6" fill="#fff" opacity="0.67"/><circle cx="545.4" cy="249.9" r="1.5" fill="#fff" opacity="0.47"/><circle cx="683.9" cy="118.7" r="1.4" fill="#fff" opacity="0.26"/><circle cx="877.2" cy="410.2" r="0.5" fill="#fff" opacity="0.67"/><circle cx="824.1" cy="366.2" r="1.2" fill="#fff" opacity="0.43"/><circle cx="519.2" cy="412.2" r="1.6" fill="#fff" opacity="0.34"/><circle cx="121.4" cy="40.4" r="0.5" fill="#fff" opacity="0.56"/><circle cx="180.3" cy="373" r="1.3" fill="#fff" opacity="0.34"/><circle cx="689.5" cy="139.4" r="1.1" fill="#fff" opacity="0.40"/><circle cx="212.6" cy="79.1" r="1" fill="#fff" opacity="0.75"/><circle cx="704" cy="19.9" r="1.4" fill="#fff" opacity="0.86"/><circle cx="991" cy="340" r="0.5" fill="#fff" opacity="0.57"/><circle cx="81.3" cy="328.5" r="0.7" fill="#fff" opacity="0.75"/><circle cx="323.7" cy="299.6" r="0.9" fill="#fff" opacity="0.28"/><circle cx="497.8" cy="133" r="1.6" fill="#fff" opacity="0.46"/><circle cx="644" cy="236.2" r="1.6" fill="#fff" opacity="0.32"/><circle cx="769.5" cy="218.5" r="1.4" fill="#fff" opacity="0.93"/><circle cx="397" cy="300.8" r="1.1" fill="#fff" opacity="0.64"/><circle cx="81.6" cy="350.3" r="1.7" fill="#fff" opacity="0.50"/><circle cx="407.2" cy="427.1" r="0.6" fill="#fff" opacity="0.30"/><circle cx="93.9" cy="350.2" r="1.4" fill="#fff" opacity="0.56"/><circle cx="795.4" cy="8.5" r="1.3" fill="#fff" opacity="0.56"/><circle cx="662.3" cy="167.4" r="1" fill="#fff" opacity="0.41"/><circle cx="62.5" cy="186.6" r="0.8" fill="#fff" opacity="0.74"/><circle cx="1046.1" cy="311.2" r="1" fill="#fff" opacity="0.42"/><circle cx="493.3" cy="209.3" r="1.3" fill="#fff" opacity="0.92"/><circle cx="109.3" cy="206.3" r="1.1" fill="#fff" opacity="0.75"/><circle cx="1139.8" cy="335.2" r="1.3" fill="#fff" opacity="0.78"/><circle cx="855.1" cy="369.3" r="1.3" fill="#fff" opacity="0.73"/><circle cx="314" cy="394.2" r="1" fill="#fff" opacity="0.68"/><circle cx="1055.8" cy="414.4" r="1.7" fill="#fff" opacity="0.25"/><circle cx="400.1" cy="134" r="1" fill="#fff" opacity="0.35"/><circle cx="708.2" cy="34.2" r="0.9" fill="#fff" opacity="0.91"/><circle cx="950.2" cy="198.8" r="0.6" fill="#fff" opacity="0.92"/><circle cx="901.1" cy="88.5" r="0.9" fill="#fff" opacity="0.70"/><circle cx="872.5" cy="112.2" r="1.6" fill="#fff" opacity="0.48"/><circle cx="325.4" cy="363.5" r="0.7" fill="#fff" opacity="0.73"/><circle cx="255.8" cy="257.1" r="0.8" fill="#fff" opacity="0.52"/><circle cx="1204.1" cy="200.8" r="1" fill="#fff" opacity="0.68"/><circle cx="359.2" cy="75" r="1" fill="#fff" opacity="0.44"/><circle cx="241.2" cy="413.1" r="0.5" fill="#fff" opacity="0.82"/><circle cx="1196.5" cy="303" r="0.5" fill="#fff" opacity="0.60"/><circle cx="50.3" cy="261.4" r="1.3" fill="#fff" opacity="0.42"/><circle cx="9.7" cy="234.1" r="0.6" fill="#fff" opacity="0.47"/><circle cx="581.3" cy="384.6" r="0.9" fill="#fff" opacity="0.34"/><circle cx="1013.4" cy="353.6" r="1.1" fill="#fff" opacity="0.28"/><circle cx="240.1" cy="173.3" r="1.2" fill="#fff" opacity="0.41"/><circle cx="1027" cy="362.7" r="1.6" fill="#fff" opacity="0.87"/><circle cx="22.5" cy="250.3" r="0.6" fill="#fff" opacity="0.88"/><circle cx="956.1" cy="326.5" r="0.7" fill="#fff" opacity="0.29"/><circle cx="1043.5" cy="260.8" r="1.2" fill="#fff" opacity="0.58"/><circle cx="1024.1" cy="145.3" r="0.8" fill="#fff" opacity="0.50"/><circle cx="381.4" cy="269.7" r="1.6" fill="#fff" opacity="0.30"/><circle cx="86.6" cy="220.1" r="1.3" fill="#fff" opacity="0.38"/><circle cx="345.4" cy="25.3" r="0.5" fill="#fff" opacity="0.60"/><circle cx="871.4" cy="280.9" r="0.7" fill="#fff" opacity="0.32"/><circle cx="1191.5" cy="231.6" r="1" fill="#fff" opacity="0.73"/><circle cx="931.6" cy="225.6" r="0.6" fill="#fff" opacity="0.83"/><circle cx="273.6" cy="17.4" r="0.9" fill="#fff" opacity="0.62"/><circle cx="804.1" cy="74.9" r="1.4" fill="#fff" opacity="0.60"/><circle cx="207.4" cy="365.9" r="1.5" fill="#fff" opacity="0.88"/><circle cx="869.7" cy="93.4" r="1.4" fill="#fff" opacity="0.88"/><circle cx="682.6" cy="390.6" r="1.7" fill="#fff" opacity="0.52"/><circle cx="1205.5" cy="402.8" r="1.5" fill="#fff" opacity="0.26"/><circle cx="450.5" cy="263.8" r="1.2" fill="#fff" opacity="0.78"/><circle cx="828" cy="69.4" r="1.6" fill="#fff" opacity="0.63"/><circle cx="1128.6" cy="88.9" r="1.7" fill="#fff" opacity="0.64"/><circle cx="992.7" cy="318.2" r="1.6" fill="#fff" opacity="0.50"/><circle cx="106" cy="174.4" r="0.7" fill="#fff" opacity="0.63"/><circle cx="1043.2" cy="155.8" r="0.7" fill="#fff" opacity="0.27"/><circle cx="541.4" cy="249.6" r="0.5" fill="#fff" opacity="0.72"/><circle cx="269.9" cy="46" r="1.6" fill="#fff" opacity="0.62"/><circle cx="1145.7" cy="221" r="0.6" fill="#fff" opacity="0.42"/><circle cx="543.1" cy="275.6" r="1.4" fill="#fff" opacity="0.78"/><circle cx="833" cy="108.8" r="1" fill="#fff" opacity="0.51"/><circle cx="626.7" cy="114.2" r="1.1" fill="#fff" opacity="0.57"/><circle cx="45.5" cy="353.8" r="1.2" fill="#fff" opacity="0.81"/><circle cx="942.8" cy="314.3" r="1.7" fill="#fff" opacity="0.51"/><circle cx="503.8" cy="1.6" r="1.3" fill="#fff" opacity="0.66"/><circle cx="737.8" cy="429" r="0.7" fill="#fff" opacity="0.41"/><circle cx="939.7" cy="349.3" r="1.1" fill="#fff" opacity="0.29"/><circle cx="474.1" cy="355.3" r="1.1" fill="#fff" opacity="0.57"/><circle cx="498.5" cy="270.2" r="1.2" fill="#fff" opacity="0.74"/><circle cx="1107.5" cy="323.1" r="0.9" fill="#fff" opacity="0.43"/><circle cx="1000.8" cy="341" r="1.6" fill="#fff" opacity="0.39"/><circle cx="1085" cy="383" r="0.6" fill="#fff" opacity="0.47"/><circle cx="811.1" cy="62.8" r="1.5" fill="#fff" opacity="0.44"/><circle cx="873.4" cy="127.2" r="0.8" fill="#fff" opacity="0.39"/><circle cx="636.9" cy="306.6" r="0.8" fill="#fff" opacity="0.73"/><circle cx="428.9" cy="279.2" r="0.9" fill="#fff" opacity="0.39"/><circle cx="180.5" cy="24.8" r="1.3" fill="#fff" opacity="0.54"/><circle cx="157.8" cy="378.6" r="1.3" fill="#fff" opacity="0.26"/><circle cx="927.7" cy="255.7" r="1" fill="#fff" opacity="0.60"/><circle cx="1231.6" cy="160.8" r="1.3" fill="#fff" opacity="0.70"/><circle cx="468.1" cy="148.9" r="1.4" fill="#fff" opacity="0.70"/><circle cx="584.9" cy="220.9" r="0.8" fill="#fff" opacity="0.80"/><circle cx="25.4" cy="276.6" r="1" fill="#fff" opacity="0.40"/><circle cx="751.1" cy="250.7" r="0.6" fill="#fff" opacity="0.59"/><circle cx="211.3" cy="343.6" r="0.9" fill="#fff" opacity="0.48"/><circle cx="275.7" cy="20.7" r="0.7" fill="#fff" opacity="0.36"/><circle cx="798.9" cy="364.4" r="0.8" fill="#fff" opacity="0.33"/><circle cx="684.1" cy="49.7" r="1" fill="#fff" opacity="0.78"/><circle cx="260" cy="300.8" r="1.1" fill="#fff" opacity="0.31"/><circle cx="310.5" cy="257.7" r="0.6" fill="#fff" opacity="0.39"/><circle cx="738.2" cy="351.8" r="1.1" fill="#fff" opacity="0.71"/><circle cx="11.6" cy="130.1" r="0.9" fill="#fff" opacity="0.89"/><circle cx="457.6" cy="337.5" r="0.5" fill="#fff" opacity="0.60"/><circle cx="1141.1" cy="331.7" r="1.2" fill="#fff" opacity="0.38"/><circle cx="1185.6" cy="34.3" r="1.7" fill="#fff" opacity="0.79"/><circle cx="921.2" cy="228.2" r="0.7" fill="#fff" opacity="0.49"/><circle cx="849.9" cy="282.1" r="1" fill="#fff" opacity="0.81"/><circle cx="68.4" cy="123.5" r="0.6" fill="#fff" opacity="0.48"/><circle cx="1015" cy="324" r="0.7" fill="#fff" opacity="0.47"/><circle cx="143.5" cy="284.6" r="1" fill="#fff" opacity="0.41"/><circle cx="478.9" cy="372" r="1" fill="#fff" opacity="0.73"/><circle cx="803.5" cy="203.7" r="1.2" fill="#fff" opacity="0.50"/><circle cx="253.9" cy="212.6" r="0.9" fill="#fff" opacity="0.48"/><circle cx="238.8" cy="392.7" r="1" fill="#fff" opacity="0.39"/><circle cx="40.6" cy="92.1" r="1.5" fill="#fff" opacity="0.49"/><circle cx="853.8" cy="99.1" r="1.3" fill="#fff" opacity="0.57"/><circle cx="942.6" cy="227.2" r="1" fill="#fff" opacity="0.45"/><circle cx="760.7" cy="357.7" r="1.3" fill="#fff" opacity="0.59"/><circle cx="420.5" cy="383.3" r="1.5" fill="#fff" opacity="0.35"/><circle cx="869.4" cy="332" r="1.3" fill="#fff" opacity="0.93"/><circle cx="1125.1" cy="105.8" r="1.7" fill="#fff" opacity="0.48"/><circle cx="486.2" cy="419.8" r="0.7" fill="#fff" opacity="0.53"/><circle cx="801.2" cy="117.3" r="0.8" fill="#fff" opacity="0.81"/><circle cx="784" cy="319.9" r="1.4" fill="#fff" opacity="0.86"/><circle cx="1143.8" cy="354.1" r="1.7" fill="#fff" opacity="0.60"/><circle cx="898" cy="221" r="1.7" fill="#fff" opacity="0.71"/><circle cx="551.1" cy="285.5" r="0.9" fill="#fff" opacity="0.34"/><circle cx="494.5" cy="58.9" r="0.5" fill="#fff" opacity="0.31"/><circle cx="581.6" cy="328.2" r="0.6" fill="#fff" opacity="0.70"/><circle cx="142.5" cy="219.5" r="0.9" fill="#fff" opacity="0.56"/><circle cx="911.3" cy="177.8" r="1" fill="#fff" opacity="0.76"/><circle cx="148.3" cy="150" r="1.3" fill="#fff" opacity="0.83"/><circle cx="1253.7" cy="110.6" r="1.3" fill="#fff" opacity="0.47"/><circle cx="898.4" cy="363.9" r="0.7" fill="#fff" opacity="0.49"/><circle cx="1198.4" cy="151.5" r="1.3" fill="#fff" opacity="0.82"/><circle cx="356.7" cy="336.9" r="0.5" fill="#fff" opacity="0.49"/><circle cx="213.6" cy="148.7" r="0.8" fill="#fff" opacity="0.27"/><circle cx="1028" cy="74.6" r="1.2" fill="#fff" opacity="0.64"/><circle cx="1087.3" cy="364.2" r="1.2" fill="#fff" opacity="0.37"/><circle cx="973.9" cy="41.9" r="1.6" fill="#fff" opacity="0.47"/><circle cx="323.5" cy="93.1" r="1" fill="#fff" opacity="0.80"/><circle cx="1094.3" cy="320.8" r="1.4" fill="#fff" opacity="0.42"/><circle cx="411.1" cy="130.8" r="1" fill="#fff" opacity="0.86"/><circle cx="1274.8" cy="36" r="1.7" fill="#fff" opacity="0.89"/><circle cx="590" cy="297.9" r="1.4" fill="#fff" opacity="0.38"/><circle cx="788.3" cy="422.1" r="1.6" fill="#fff" opacity="0.89"/><circle cx="108.5" cy="307.3" r="1.1" fill="#fff" opacity="0.89"/><circle cx="213.6" cy="236" r="0.6" fill="#fff" opacity="0.81"/><circle cx="924.9" cy="13.4" r="0.9" fill="#fff" opacity="0.35"/><circle cx="813.4" cy="270.9" r="0.6" fill="#fff" opacity="0.92"/><circle cx="1235.5" cy="189.5" r="1.2" fill="#fff" opacity="0.50"/><circle cx="775.9" cy="171.3" r="1" fill="#fff" opacity="0.77"/><circle cx="238.7" cy="128.3" r="1.4" fill="#fff" opacity="0.41"/><circle cx="88.1" cy="392" r="0.7" fill="#fff" opacity="0.54"/><circle cx="401.3" cy="112.5" r="0.9" fill="#fff" opacity="0.63"/><circle cx="148.6" cy="229.3" r="0.6" fill="#fff" opacity="0.31"/><path d="M0 720 L0 487.1 L25.6 479.3 L51.2 471.5 L76.8 468.3 L102.4 453.5 L128 456.9 L153.6 461.8 L179.2 457.2 L204.8 462.8 L230.4 475.5 L256 474.3 L281.6 477 L307.2 487.5 L332.8 487.9 L358.4 495.5 L384 492.2 L409.6 509.9 L435.2 502.7 L460.8 495.6 L486.4 505.2 L512 494.3 L537.6 508.6 L563.2 491.9 L588.8 497.8 L614.4 483.1 L640 486.6 L665.6 481 L691.2 484.7 L716.8 483.4 L742.4 470.2 L768 477.3 L793.6 481 L819.2 496.3 L844.8 499.2 L870.4 491.2 L896 516.5 L921.6 518.4 L947.2 523.7 L972.8 536.8 L998.4 544 L1024 541.4 L1049.6 552.1 L1075.2 568.6 L1100.8 567.7 L1126.4 569.2 L1152 562.8 L1177.6 560.9 L1203.2 566.2 L1228.8 552 L1254.4 552 L1280 553 L1280 720 Z" fill="#1a1636"/><path d="M0 720 L0 640 C 260 610 520 520 700 430 S 880 300 930 300 S 1100 380 1280 470 L1280 720 Z" fill="#0b0a18"/><circle cx="110" cy="700" r="9" fill="url(#torch)"/><circle cx="133.6" cy="700.7" r="9" fill="url(#torch)"/><circle cx="157.1" cy="701.5" r="9" fill="url(#torch)"/><circle cx="180.7" cy="702.2" r="9" fill="url(#torch)"/><circle cx="190.2" cy="673.8" r="9" fill="url(#torch)"/><circle cx="199.6" cy="645.4" r="9" fill="url(#torch)"/><circle cx="209.1" cy="617" r="9" fill="url(#torch)"/><circle cx="236.9" cy="626.5" r="9" fill="url(#torch)"/><circle cx="264.7" cy="636" r="9" fill="url(#torch)"/><circle cx="292.5" cy="645.5" r="9" fill="url(#torch)"/><circle cx="302.7" cy="618.5" r="9" fill="url(#torch)"/><circle cx="312.9" cy="591.6" r="9" fill="url(#torch)"/><circle cx="323" cy="564.6" r="9" fill="url(#torch)"/><circle cx="350.1" cy="572.7" r="9" fill="url(#torch)"/><circle cx="377.2" cy="580.7" r="9" fill="url(#torch)"/><circle cx="404.3" cy="588.7" r="9" fill="url(#torch)"/><circle cx="415.2" cy="563.2" r="9" fill="url(#torch)"/><circle cx="426.1" cy="537.7" r="9" fill="url(#torch)"/><circle cx="436.9" cy="512.2" r="9" fill="url(#torch)"/><circle cx="463.3" cy="518.8" r="9" fill="url(#torch)"/><circle cx="489.7" cy="525.4" r="9" fill="url(#torch)"/><circle cx="516.1" cy="532" r="9" fill="url(#torch)"/><circle cx="527.7" cy="507.9" r="9" fill="url(#torch)"/><circle cx="539.3" cy="483.9" r="9" fill="url(#torch)"/><circle cx="550.9" cy="459.9" r="9" fill="url(#torch)"/><circle cx="576.5" cy="465" r="9" fill="url(#torch)"/><circle cx="602.2" cy="470.1" r="9" fill="url(#torch)"/><circle cx="627.9" cy="475.2" r="9" fill="url(#torch)"/><circle cx="640.2" cy="452.6" r="9" fill="url(#torch)"/><circle cx="652.5" cy="430" r="9" fill="url(#torch)"/><circle cx="664.8" cy="407.5" r="9" fill="url(#torch)"/><circle cx="689.7" cy="411.1" r="9" fill="url(#torch)"/><circle cx="714.7" cy="414.8" r="9" fill="url(#torch)"/><circle cx="739.7" cy="418.4" r="9" fill="url(#torch)"/><circle cx="752.7" cy="397.3" r="9" fill="url(#torch)"/><circle cx="765.7" cy="376.2" r="9" fill="url(#torch)"/><circle cx="778.7" cy="355.1" r="9" fill="url(#torch)"/><circle cx="803" cy="357.3" r="9" fill="url(#torch)"/><circle cx="827.2" cy="359.5" r="9" fill="url(#torch)"/><circle cx="851.5" cy="361.7" r="9" fill="url(#torch)"/><circle cx="867.7" cy="347.1" r="9" fill="url(#torch)"/><circle cx="883.8" cy="332.6" r="9" fill="url(#torch)"/><circle cx="930" cy="270" r="200" fill="url(#fireglow)"/><path d="M890 300 C 880 250 920 240 918 190 C 950 230 975 240 970 300 Z" fill="url(#flame)"/><path d="M912 300 C 908 270 930 260 932 228 C 948 260 956 270 950 300 Z" fill="#fff1b8" opacity=".85"/><circle cx="900.9" cy="163.5" r="1.3" fill="#ffb347" opacity="0.72"/><circle cx="998.9" cy="80.3" r="2" fill="#ffb347" opacity="0.82"/><circle cx="928.8" cy="132" r="2.4" fill="#ffb347" opacity="0.38"/><circle cx="910.7" cy="163.9" r="1.5" fill="#ffb347" opacity="0.59"/><circle cx="868" cy="118.1" r="2.5" fill="#ffb347" opacity="0.48"/><circle cx="886" cy="169.8" r="2.3" fill="#ffb347" opacity="0.47"/><circle cx="967.9" cy="194.1" r="2" fill="#ffb347" opacity="0.75"/><circle cx="954.3" cy="207.3" r="2.5" fill="#ffb347" opacity="0.82"/><circle cx="927.3" cy="91.1" r="2" fill="#ffb347" opacity="0.44"/><circle cx="915.6" cy="96.9" r="1.7" fill="#ffb347" opacity="0.37"/><circle cx="883.2" cy="192.1" r="1.9" fill="#ffb347" opacity="0.70"/><circle cx="922.7" cy="159.4" r="2.5" fill="#ffb347" opacity="0.54"/><circle cx="954.1" cy="189.3" r="1.8" fill="#ffb347" opacity="0.45"/><circle cx="875.9" cy="169.5" r="1.2" fill="#ffb347" opacity="0.56"/><circle cx="951.4" cy="137.6" r="2.3" fill="#ffb347" opacity="0.61"/><circle cx="871.8" cy="110.9" r="1.6" fill="#ffb347" opacity="0.76"/><circle cx="996.6" cy="141.4" r="1.4" fill="#ffb347" opacity="0.55"/><circle cx="929.8" cy="172.1" r="1.2" fill="#ffb347" opacity="0.57"/><circle cx="951.9" cy="97.6" r="2.2" fill="#ffb347" opacity="0.84"/><circle cx="972.2" cy="158.3" r="2" fill="#ffb347" opacity="0.38"/><circle cx="971.2" cy="113.8" r="1.4" fill="#ffb347" opacity="0.61"/><circle cx="898" cy="100.7" r="1.7" fill="#ffb347" opacity="0.78"/><circle cx="989.3" cy="103.4" r="1.6" fill="#ffb347" opacity="0.54"/><circle cx="992.4" cy="84.3" r="1.3" fill="#ffb347" opacity="0.55"/><circle cx="970.3" cy="106.5" r="1.5" fill="#ffb347" opacity="0.60"/><circle cx="994.6" cy="206.5" r="1.4" fill="#ffb347" opacity="0.72"/><circle cx="210" cy="469.3796875" r="40" fill="url(#fireglow)"/><circle cx="210" cy="469.3796875" r="4" fill="#ffe7a0"/><circle cx="455" cy="501.20859375000003" r="40" fill="url(#fireglow)"/><circle cx="455" cy="501.20859375000003" r="4" fill="#ffe7a0"/><circle cx="1185" cy="429.8571428571429" r="40" fill="url(#fireglow)"/><circle cx="1185" cy="429.8571428571429" r="4" fill="#ffe7a0"/></svg>
